<svg version="1.2" xmlns="http://www.w3.org/2000/svg" viewBox="0 0 48 48" width="48" height="48"><style>.a{fill:#fff}</style><path class="a" d="m24.1 41.5q-7 0-11.9-4.9-4.9-4.9-4.9-11.9v-0.3l-3.4 3.3-2.9-2.9 8.4-8.4 8.3 8.4-2.9 2.9-3.3-3.3v0.3q0 5.3 3.6 8.9 3.7 3.7 9 3.7 1.4 0 2.7-0.3 1.3-0.4 2.5-1l3.2 3.2q-2 1.1-4.1 1.7-2.1 0.6-4.3 0.6zm14.5-8.5l-8.3-8.3 2.9-3 3.3 3.4v-0.4q0-5.2-3.6-8.9-3.7-3.6-9-3.6-1.4 0-2.7 0.3-1.3 0.3-2.5 0.9l-3.2-3.1q2-1.1 4.1-1.7 2.1-0.6 4.3-0.6 7 0 11.9 4.9 4.9 4.8 4.9 11.8v0.4l3.4-3.4 2.9 3z"/></svg>