<svg version="1.2" xmlns="http://www.w3.org/2000/svg" viewBox="0 0 24 24" width="24" height="24"><style>.a{fill:#fff}</style><path class="a" d="m4.5 21q-0.6 0-1-0.4-0.5-0.5-0.5-1.1v-15q0-0.6 0.5-1.1 0.4-0.4 1-0.4h15q0.6 0 1.1 0.4 0.4 0.5 0.4 1.1v15q0 0.6-0.4 1.1-0.5 0.4-1.1 0.4zm0-1.5h15v-15h-15zm8.4-6.6q0.3-0.4 0.3-0.9 0-0.5-0.3-0.9-0.4-0.3-0.9-0.3-0.5 0-0.9 0.3-0.4 0.4-0.4 0.9 0 0.5 0.4 0.9 0.4 0.4 0.9 0.4 0.5 0 0.9-0.4zm4.5 4.5q0.3-0.4 0.3-0.9 0-0.5-0.3-0.9-0.4-0.3-0.9-0.3-0.5 0-0.9 0.3-0.4 0.4-0.4 0.9 0 0.5 0.4 0.9 0.4 0.4 0.9 0.4 0.5 0 0.9-0.4zm0-9q0.3-0.4 0.3-0.9 0-0.5-0.3-0.9-0.4-0.3-0.9-0.3-0.5 0-0.9 0.3-0.4 0.4-0.4 0.9 0 0.5 0.4 0.9 0.4 0.4 0.9 0.4 0.5 0 0.9-0.4zm-9 9q0.3-0.4 0.3-0.9 0-0.5-0.3-0.9-0.4-0.3-0.9-0.3-0.5 0-0.9 0.3-0.4 0.4-0.4 0.9 0 0.5 0.4 0.9 0.4 0.4 0.9 0.4 0.5 0 0.9-0.4zm0-9q0.3-0.4 0.3-0.9 0-0.5-0.3-0.9-0.4-0.3-0.9-0.3-0.5 0-0.9 0.3-0.4 0.4-0.4 0.9 0 0.5 0.4 0.9 0.4 0.4 0.9 0.4 0.5 0 0.9-0.4zm-3.9-3.9v15z"/></svg>