<svg version="1.2" xmlns="http://www.w3.org/2000/svg" viewBox="0 0 24 24" width="24" height="24"><style>.a{fill:#fff}</style><path class="a" d="m12 21q-1.9 0-3.5-0.7-1.7-0.7-2.9-1.9-1.2-1.2-1.9-2.9-0.7-1.6-0.7-3.5 0-1.9 0.7-3.5 0.7-1.7 1.9-2.9 1.2-1.2 2.9-1.9 1.6-0.7 3.5-0.7 1.9 0 3.5 0.7 1.7 0.7 2.9 1.9 1.2 1.2 1.9 2.9 0.7 1.6 0.7 3.5 0 1.9-0.7 3.5-0.7 1.7-1.9 2.9-1.2 1.2-2.9 1.9-1.6 0.7-3.5 0.7zm-0.7-1.4v-1.4q-0.9-0.1-1.7-0.5-0.8-0.3-1.5-0.9l-1 1.1q0.9 0.7 1.9 1.2 1.1 0.4 2.3 0.5zm1.4 0q1.2-0.1 2.3-0.5 1.1-0.5 1.9-1.2l-1-1.1q-0.7 0.6-1.5 0.9-0.8 0.4-1.7 0.5zm-0.7-2.8q2 0 3.5-1.4 1.4-1.4 1.4-3.5 0-2-1.4-3.4-1.5-1.4-3.5-1.4-2 0-3.5 1.4-1.4 1.4-1.4 3.4 0 2.1 1.4 3.5 1.5 1.4 3.5 1.4zm5.9 0.1q0.7-0.9 1.2-2 0.4-1.1 0.5-2.3h-1.4q-0.1 0.9-0.5 1.7-0.3 0.9-0.9 1.5zm-11.7 0l1-1q-0.5-0.7-0.8-1.5-0.4-0.8-0.5-1.7h-1.5q0.1 1.2 0.6 2.3 0.5 1.1 1.2 1.9zm5.9-1.6l-2.5-3.3 2.5-3.3 2.4 3.3zm-7.6-4h1.5q0.1-0.9 0.4-1.7 0.3-0.8 0.9-1.5l-1.1-1q-0.7 0.9-1.1 1.9-0.5 1.1-0.6 2.3zm13.8 0h1.4q-0.1-1.2-0.5-2.3-0.5-1-1.2-1.9l-1 1q0.5 0.7 0.8 1.5 0.4 0.8 0.5 1.7zm-10.1-4.1q0.7-0.6 1.5-0.9 0.8-0.3 1.7-0.4v-1.5q-1.2 0.1-2.3 0.6-1 0.4-1.9 1.1zm7.8 0l1-1q-0.9-0.7-1.9-1.2-1.1-0.4-2.3-0.5v1.4q0.9 0.1 1.7 0.5 0.8 0.3 1.5 0.8z"/></svg>