<svg version="1.2" xmlns="http://www.w3.org/2000/svg" viewBox="0 0 24 24" width="24" height="24"><style>.a{fill:#fff}</style><path class="a" d="m18.6 21.4q-0.1 0-0.2-0.1l-5.6-5.6q-0.1-0.2-0.2-0.3 0-0.1 0-0.2 0-0.2 0-0.3 0.1-0.1 0.2-0.2l1.9-2q0.2-0.1 0.3-0.1 0.1-0.1 0.2-0.1 0.2 0 0.3 0.1 0.1 0 0.2 0.1l5.6 5.6q0.1 0.1 0.2 0.3 0 0.1 0 0.2 0 0.2 0 0.3-0.1 0.1-0.2 0.2l-1.9 2q-0.2 0.1-0.3 0.1-0.1 0.1-0.2 0.1-0.2 0-0.3-0.1zm-13.2 0q-0.1 0-0.2-0.1l-2-2q-0.1-0.1-0.2-0.2 0-0.1 0-0.3 0-0.1 0-0.2 0.1-0.2 0.2-0.3l5.2-5.2h2l0.9-0.9-4.1-4h-1.3l-2.9-2.9 2.3-2.3 2.9 2.9v1.3l4.1 4.1 3-3.1-1.6-1.5 1.3-1.3h-2.6l-0.4-0.4 2.9-3 0.5 0.4v2.6l1.3-1.3 3.9 4q0.3 0.3 0.5 0.8 0.2 0.4 0.2 0.9 0 0.5-0.1 0.9-0.2 0.4-0.5 0.8l-1.9-2-1.3 1.3-1.2-1.2-4.9 4.9v2l-5.2 5.2q-0.2 0.1-0.3 0.1-0.1 0.1-0.2 0.1-0.2 0-0.3-0.1zm13.5-1.6l1-1-4.7-4.6-1 1zm-13.2 0l4.7-4.7v-1h-1l-4.7 4.7zm0 0l-1-1 0.5 0.5zm13.2 0l1-1z"/></svg>