<svg version="1.2" xmlns="http://www.w3.org/2000/svg" viewBox="0 0 24 24" width="24" height="24"><style>.a{fill:#fff}</style><path class="a" d="m9.5 20.5h-2.2l-4-4q-0.2-0.2-0.2-0.4-0.1-0.1-0.1-0.3 0-0.3 0.1-0.5 0.1-0.2 0.2-0.3l0.7-0.7q0.2-0.2 0.4-0.2 0.2-0.1 0.4-0.1 0.1 0 0.4 0.1 0.2 0.1 0.3 0.2l4 4zm-4.7-5.4l-0.7 0.6zm3.6 4.4v-0.7l-2.2-2.2-0.3 0.3-0.3 0.4 2.2 2.2zm-2.6-2.6l-0.3 0.4 0.7-0.7z"/><path class="a" d="m11.5 20.1v-1.4h4l4.6-6.1-4.6-6.2h-11.1v6.2h-1.4v-6.2q0-0.6 0.4-1 0.4-0.4 1-0.4h11.1q0.4 0 0.7 0.2 0.3 0.1 0.5 0.4l5.2 7-5.2 6.9q-0.2 0.3-0.5 0.5-0.3 0.1-0.6 0.1z"/></svg>