<svg version="1.2" xmlns="http://www.w3.org/2000/svg" viewBox="0 0 40 40" width="40" height="40"><style>.a{fill:#fff}</style><path class="a" d="m19.3 25.4v-1.4q-0.8-0.2-1.4-0.7-0.6-0.6-0.9-1.5l1.2-0.5q0.2 0.7 0.7 1.1 0.4 0.4 1.2 0.4 0.6 0 1.1-0.3 0.4-0.2 0.4-0.9 0-0.5-0.3-0.8-0.4-0.4-1.6-0.8-1.4-0.4-1.9-1-0.5-0.6-0.5-1.4 0-1.1 0.7-1.6 0.6-0.6 1.3-0.7v-1.3h1.3v1.3q0.8 0.2 1.3 0.6 0.5 0.5 0.7 1.1l-1.1 0.5q-0.2-0.5-0.6-0.8-0.3-0.2-0.9-0.2-0.7 0-1.1 0.3-0.3 0.3-0.3 0.8 0 0.5 0.5 0.8 0.4 0.3 1.6 0.6 1.1 0.3 1.6 1 0.6 0.7 0.6 1.6 0 1.1-0.7 1.7-0.6 0.6-1.6 0.7v1.4z"/><path class="a" d="m8 34v-22.2q0-0.7 0.5-1.3 0.6-0.5 1.3-0.5h20.4q0.7 0 1.3 0.5 0.5 0.6 0.5 1.3v15.6q0 0.7-0.5 1.3-0.6 0.5-1.3 0.5h-17.4zm4-6.6h18.2v-15.6h-20.4v18zm-2.2 0v-15.6z"/></svg>