<svg version="1.2" xmlns="http://www.w3.org/2000/svg" viewBox="0 0 192 192" width="192" height="192"><style>.a{fill:#fff}</style><path class="a" d="m91 154.9q-1.6 0-3.3-0.7-1.6-0.6-3-1.8l-45-45.3q-1.4-1.1-2-2.8-0.7-1.7-0.7-3.4 0-1.6 0.6-3.3 0.7-1.7 2.1-3l54.9-54.9q1.2-1.3 2.9-2 1.7-0.7 3.4-0.7h45.3q3.6 0 6.2 2.6 2.6 2.6 2.6 6.2v45.1q0 1.8-0.7 3.4-0.8 1.6-1.9 2.8l-55.1 55.3q-1.4 1.1-3 1.8-1.6 0.7-3.3 0.7zm-0.2-8.6l55.4-55.7v-44.8h-45.3l-55.2 55.3zm39.9-77.5q3.1 0 5.4-2.3 2.3-2.3 2.3-5.4 0-3.1-2.3-5.3-2.3-2.3-5.4-2.3-3.1 0-5.4 2.3-2.2 2.2-2.2 5.3 0 3.1 2.2 5.4 2.3 2.3 5.4 2.3z"/></svg>