<svg version="1.2" xmlns="http://www.w3.org/2000/svg" viewBox="0 0 48 48" width="48" height="48"><style>.a{fill:#fff}</style><path class="a" d="m6.3 47q-2.1 0-3.6-1.5-1.4-1.5-1.4-3.6v-35.3q0-2.1 1.4-3.6 1.5-1.5 3.6-1.5h35.4q2.1 0 3.6 1.5 1.4 1.5 1.4 3.6v35.3q0 2.1-1.4 3.6-1.5 1.5-3.6 1.5zm0-5.1h35.4v-35.3h-35.4zm20.4-15.1q1.1-1.1 1.1-2.6 0-1.6-1.1-2.7-1.1-1.1-2.7-1.1-1.6 0-2.7 1.1-1.1 1.1-1.1 2.7 0 1.5 1.1 2.6 1.1 1.2 2.7 1.2 1.6 0 2.7-1.2zm11.3 11.4q1.2-1.1 1.2-2.7 0-1.5-1.2-2.6-1.1-1.2-2.6-1.2-1.6 0-2.7 1.2-1.1 1.1-1.1 2.6 0 1.6 1.1 2.7 1.1 1.1 2.7 1.1 1.5 0 2.6-1.1zm0-22.7q1.2-1.1 1.2-2.7 0-1.6-1.2-2.7-1.1-1.1-2.6-1.1-1.6 0-2.7 1.1-1.1 1.1-1.1 2.7 0 1.6 1.1 2.7 1.1 1.1 2.7 1.1 1.5 0 2.6-1.1zm-22.7 22.7q1.1-1.1 1.1-2.7 0-1.5-1.1-2.6-1.1-1.2-2.7-1.2-1.6 0-2.7 1.2-1.1 1.1-1.1 2.6 0 1.6 1.1 2.7 1.1 1.1 2.7 1.1 1.6 0 2.7-1.1zm0-22.7q1.1-1.1 1.1-2.7 0-1.6-1.1-2.7-1.1-1.1-2.7-1.1-1.6 0-2.7 1.1-1.1 1.1-1.1 2.7 0 1.6 1.1 2.7 1.1 1.1 2.7 1.1 1.6 0 2.7-1.1zm-9-9v35.4z"/></svg>